<svg height="24" viewBox="0 -960 960 960" width="24" fill="#3cb371" xmlns="http://www.w3.org/2000/svg"><path d="M330-667.969c-52.22 0-96.643 18.334-133.203 55-36.553 36.667-54.766 81.043-54.766 133.203 0 52.154 18.213 96.456 54.766 132.97 36.56 36.506 80.983 54.765 133.203 54.765h300c52.22 0 96.643-18.334 133.203-55 36.553-36.667 54.766-81.043 54.766-133.203 0-52.154-18.213-96.456-54.766-132.97-36.56-36.506-80.983-54.765-133.203-54.765H330zm300.156 52.422a133.864 133.864 0 0 1 133.828 133.828A133.864 133.864 0 0 1 630.156-347.89a133.864 133.864 0 0 1-133.828-133.828 133.864 133.864 0 0 1 133.828-133.828z"/></svg>