<svg height="24" viewBox="0 -960 960 960" width="24" xmlns="http://www.w3.org/2000/svg"><path d="M330-292c-52.22 0-96.61-18.253-133.17-54.76-36.553-36.513-54.83-80.847-54.83-133 0-52.16 18.277-96.573 54.83-133.24 36.56-36.667 80.95-55 133.17-55h300c52.22 0 96.61 18.253 133.17 54.76 36.553 36.513 54.83 80.847 54.83 133 0 52.16-18.277 96.573-54.83 133.24-36.56 36.667-80.95 55-133.17 55zm0-28h300c44 0 81.667-15.667 113-47s47-69 47-113-15.667-81.667-47-113-69-47-113-47H330c-44 0-81.667 15.667-113 47s-47 69-47 113 15.667 81.667 47 113 69 47 113 47zm-.12-66c26.08 0 48.287-9.127 66.62-27.38 18.333-18.253 27.5-40.42 27.5-66.5s-9.127-48.287-27.38-66.62c-18.253-18.333-40.42-27.5-66.5-27.5s-48.287 9.127-66.62 27.38c-18.333 18.253-27.5 40.42-27.5 66.5s9.127 48.287 27.38 66.62c18.253 18.333 40.42 27.5 66.5 27.5z"/></svg>