<svg height="24" viewBox="0 -960 960 960" width="24" xmlns="http://www.w3.org/2000/svg"><path d="M480-880c-55.333 0-107.35 10.484-156.016 31.484-35.873 15.48-68.21 35.107-97.187 58.75l56.328 56.328c3.754-2.96 7.41-6.14 11.25-8.906C347.769-780.784 409.659-800 480-800c75.433 0 141.087 22.2 197.031 66.406l56.25-56.25c-28.983-23.618-61.405-43.198-97.265-58.672C587.349-869.516 535.333-880 480-880Zm309.844 146.719-56.25 56.25C777.8-621.087 800-555.433 800-480c0 75.441-22.197 141.076-66.406 197.031l56.172 56.172c23.643-28.978 43.27-61.313 58.75-97.187C869.516-372.651 880-424.667 880-480c0-55.333-10.484-107.35-31.484-156.016-15.474-35.86-35.054-68.282-58.672-97.265zm-619.61.078c-23.643 28.978-43.27 61.313-58.75 97.187C90.484-587.349 80-535.333 80-480c0 30 3.198 59.302 9.531 87.969 6.334 28.666 15.771 56.729 28.438 84.062L40-40l267.969-77.969c27.333 12.667 55.396 22.104 84.062 28.438C420.698-83.198 450.001-80 480-80c55.333 0 107.35-10.484 156.016-31.484 35.874-15.48 68.21-35.107 97.187-58.75l-56.172-56.172C621.076-182.196 555.441-160 480-160c-24 0-47.682-2.635-71.016-7.969-23.333-5.333-45.62-13.396-66.953-24.062-8.666-4-17.833-6.287-27.5-6.953-9.666-.667-19.182.302-28.515 2.968l-128.047 38.047 38.047-128.047c2.666-9.333 3.849-18.849 3.515-28.515-.333-9.667-2.833-18.834-7.5-27.5-10.666-21.334-18.729-43.62-24.062-66.953C162.635-432.318 160-456 160-480c0-75.441 22.197-141.076 66.406-197.031zM480-720a240 240 0 0 0-240 240 240 240 0 0 0 240 240 240 240 0 0 0 240-240 240 240 0 0 0-240-240zm0 80a160 160 0 0 1 160 160 160 160 0 0 1-160 160 160 160 0 0 1-160-160 160 160 0 0 1 160-160z"/></svg>